<svg id="canvas" height="100%" xmlns="http://www.w3.org/2000/svg" version="1.1" xmlns:xlink="http://www.w3.org/1999/xlink" xmlns:svgjs="http://svgjs.dev/svgjs" viewBox="0 0 900 512"><rect width="900" height="512" fill="#ffffffff"></rect><path d="M-450,-212.68393081818584C-395.3174100452311,-199.55302126841224,-236.23516515214317,-159.48462682804808,-121.90446027138677,-133.89847351954424C-7.573755390630382,-108.31232021104042,127.03739268114838,-75.317268832152,235.98422928453834,-59.16701096716287C344.9310658879283,-43.016753102173745,421.10726422970953,-54.07743968777234,531.7765593489531,-36.99692632960951C642.4458544681968,-19.91641297144667,838.6294265581589,29.930569929910206,900,43.31606918181415L 900 512 L -450 512 Z" fill="#03045e"></path><path d="M-450,-103.98982467999187C-421.4074032318172,-100.64394105127157,-346.22447836165634,-94.75905125619933,-278.4444193909033,-83.91452290767003C-210.66436042015027,-73.06999455914074,-112.68734880160586,-55.09033684685842,-43.319646175481864,-38.92265458881612C26.048056450642136,-22.75497233077383,75.95108025358002,-9.372803690744092,137.76179636584064,13.091570640583726C199.57251247810126,35.55594497191154,264.58246435835264,80.58303472610729,327.54465049808186,95.86359139915079C390.5068366378111,111.1441480721943,456.8246338060155,90.49606019075422,515.5349132042161,104.77491067884472C574.2451926024166,119.05376116693522,615.7288124213212,161.74592799861097,679.8063268872852,181.53669432769377C743.8838413532492,201.32746065677657,863.3010544812142,216.52237293240017,900,223.51950865334146L 900 512 L -450 512 Z" fill="#023e8a"></path><path d="M-450,-5.848573993100146C-419.95709759490296,0.6712027434964822,-332.33089078562966,13.43788512152517,-269.74258556941794,33.27008642647962C-207.15428035320622,53.102287731434075,-142.08382142948733,86.8738473702695,-74.4701687027297,113.14463383662657C-6.856515975972059,139.41542030298365,72.65659260710743,170.3304822374471,135.93933079112787,190.89480522462205C199.22206897514832,211.459128211797,246.1320133014576,224.5195177386806,305.22626040139295,236.53057175967635C364.3205075013283,248.5416257806721,424.67657349145094,248.42466986008804,490.50481339074,262.9611293505965C556.333053290029,277.4975888411049,631.9465020289174,302.0478348155652,700.1956997971274,323.74932870272687C768.4448975653374,345.45082258988856,866.6992832995212,381.5999653450932,900,393.1700926735665L 900 512 L -450 512 Z" fill="#0077b6"></path><path d="M-450,110.98316059347427C-421.8459577284126,117.79899586579282,-339.6103978317676,128.70354122527013,-281.07574637047577,151.87817222738556C-222.54109490918393,175.052803229501,-162.1831229866149,220.34274121085156,-98.79209123224888,250.03094660616682C-35.401059477882846,279.7191520014821,31.439574962518535,308.307986437027,99.27044415572044,330.0074045992771C167.10131334892236,351.7068227615272,233.02036443537207,355.18932639789034,308.1931239269625,380.22745557966743C383.365883418553,405.26558476144453,488.56182382489266,457.4429851359996,550.3070011052631,480.2361796899396C612.0521783856335,503.0293742438796,620.3820211267291,500.1074594193851,678.6641876091852,516.9866229033075C736.9463540916413,533.86578638723,863.1106979348642,570.7570709784464,900,581.5111605934742L 900 512 L -450 512 Z" fill="#0096c7"></path></svg>