<svg id="canvas" height="auto" xmlns="http://www.w3.org/2000/svg" version="1.1" xmlns:xlink="http://www.w3.org/1999/xlink" xmlns:svgjs="http://svgjs.dev/svgjs" viewBox="0 0 900 512" width="auto" style="width: auto; height: auto;"><rect width="900" height="512" fill="#171056"/><defs><linearGradient id="SvgjsLinearGradient3828"><stop stop-color="#bbff80" offset="0"/><stop stop-color="#80ffc3" offset="1"/></linearGradient><linearGradient id="SvgjsLinearGradient3829"><stop stop-color="#80ffe8" offset="0"/><stop stop-color="#8096ff" offset="1"/></linearGradient><linearGradient id="SvgjsLinearGradient3830"><stop stop-color="#ff80b6" offset="0"/><stop stop-color="#ffc880" offset="1"/></linearGradient><linearGradient id="SvgjsLinearGradient3831"><stop stop-color="#ff80cf" offset="0"/><stop stop-color="#ffaf80" offset="1"/></linearGradient><linearGradient id="SvgjsLinearGradient3832"><stop stop-color="#e8ff80" offset="0"/><stop stop-color="#80ff96" offset="1"/></linearGradient><linearGradient id="SvgjsLinearGradient3833"><stop stop-color="#c580ff" offset="0"/><stop stop-color="#ff80b9" offset="1"/></linearGradient><linearGradient id="SvgjsLinearGradient3834"><stop stop-color="#80d9ff" offset="0"/><stop stop-color="#a580ff" offset="1"/></linearGradient><linearGradient id="SvgjsLinearGradient3835"><stop stop-color="#80ff8d" offset="0"/><stop stop-color="#80f2ff" offset="1"/></linearGradient><linearGradient id="SvgjsLinearGradient3836"><stop stop-color="#98ff80" offset="0"/><stop stop-color="#80ffe7" offset="1"/></linearGradient><linearGradient id="SvgjsLinearGradient3837"><stop stop-color="#ff8081" offset="0"/><stop stop-color="#fffd80" offset="1"/></linearGradient><linearGradient id="SvgjsLinearGradient3838"><stop stop-color="#8180ff" offset="0"/><stop stop-color="#ff80fe" offset="1"/></linearGradient><linearGradient id="SvgjsLinearGradient3839"><stop stop-color="#ff809b" offset="0"/><stop stop-color="#ffe480" offset="1"/></linearGradient><linearGradient id="SvgjsLinearGradient3840"><stop stop-color="#d680ff" offset="0"/><stop stop-color="#ff80a9" offset="1"/></linearGradient><linearGradient id="SvgjsLinearGradient3841"><stop stop-color="#ffa580" offset="0"/><stop stop-color="#daff80" offset="1"/></linearGradient><linearGradient id="SvgjsLinearGradient3842"><stop stop-color="#ffab80" offset="0"/><stop stop-color="#d3ff80" offset="1"/></linearGradient><linearGradient id="SvgjsLinearGradient3843"><stop stop-color="#f9ff80" offset="0"/><stop stop-color="#80ff86" offset="1"/></linearGradient><linearGradient id="SvgjsLinearGradient3844"><stop stop-color="#a580ff" offset="0"/><stop stop-color="#ff80d9" offset="1"/></linearGradient><linearGradient id="SvgjsLinearGradient3845"><stop stop-color="#80ffb8" offset="0"/><stop stop-color="#80c6ff" offset="1"/></linearGradient><linearGradient id="SvgjsLinearGradient3846"><stop stop-color="#80f6ff" offset="0"/><stop stop-color="#8880ff" offset="1"/></linearGradient><linearGradient id="SvgjsLinearGradient3847"><stop stop-color="#b780ff" offset="0"/><stop stop-color="#ff80c7" offset="1"/></linearGradient></defs><style>g:nth-of-type(6n){fill-opacity:1;}g:nth-of-type(6n + 1){fill-opacity:1;}g:nth-of-type(6n + 2){fill-opacity:1;}g:nth-of-type(6n + 3){fill-opacity:1;}g:nth-of-type(6n + 4){fill-opacity:1;}g:nth-of-type(6n + 5){fill-opacity:1;}</style><g transform="matrix(1,0,0,1,85.58581538170614,83.55991389493121)"><path d="M66.66669901178027,3.2891108892121537C69.79535979089933,25.133683277795612,55.20593783432207,56.901197893156386,41.971950075604845,65.97551723144812C28.737962316887618,75.04983656973985,5.776086831041074,67.01706051224933,-12.73722754052308,57.735026918962575C-31.250541912087233,48.45299332567582,-65.45100625583326,29.528324644715095,-69.10793615378007,10.283315671727571C-72.76486605172688,-8.961693301259952,-50.06346052064902,-45.172488123665865,-34.678806928203926,-57.73502691896256C-19.29415333575883,-70.29756571425926,6.309067744226461,-75.26260673474842,23.199985400890494,-65.09191710005263C40.09090305755453,-54.92122746535684,63.53803823266121,-18.555461499371305,66.66669901178027,3.2891108892121537C69.79535979089933,25.133683277795612,55.20593783432207,56.901197893156386,41.971950075604845,65.97551723144812" fill="url(#SvgjsLinearGradient3828)"/></g><g transform="matrix(1,0,0,1,86.90638668905572,219.90451119090574)"><path d="M77.41509503119846,9.466486637070066C77.36055669710106,28.315710808878254,74.01692938889451,50.16323129993202,53.89654739700019,59.45994737141514C33.77616540510587,68.75666344289826,-23.64862039012751,78.66716232263964,-43.30719692016743,65.24678306596877C-62.96577345020735,51.8264038092979,-64.29867600972376,-1.0727143916368185,-64.05491178323933,-21.062328168610094C-63.811147556754904,-41.051941945583366,-61.557726425398144,-49.26205468073356,-41.84461156126083,-54.69089959587088C-22.131496697123506,-60.1197445110082,34.34715963617471,-64.32829536492416,54.22377740158459,-53.635397659434C74.10039516699447,-42.94249995394384,77.46963336529586,-9.382737534738123,77.41509503119846,9.466486637070066C77.36055669710106,28.315710808878254,74.01692938889451,50.16323129993202,53.89654739700019,59.45994737141514" fill="url(#SvgjsLinearGradient3829)"/></g><g transform="matrix(1,0,0,1,83.23437337087273,326.4557824222985)"><path d="M74.5720801986827,7.61699368797213C72.39275322211721,29.02472818806197,52.40568111169755,70.881060677703,32.57868224004224,80.3709759851784C12.751683368386932,89.8608912926538,-29.265262584777055,78.76964021051289,-44.389913031249165,64.55648553282454C-59.514563477721275,50.34333085513619,-60.86469177150748,15.480031724213955,-58.16922043879043,-4.90795208095172C-55.473749106073384,-25.295935886117395,-45.52106245798449,-50.576837475768016,-28.217085034946887,-57.7714172981695C-10.913107611909282,-64.96599712057099,28.52311656049693,-58.97349951305091,45.654644099435195,-48.075431015360635C62.78617163837346,-37.17736251767036,76.75140717524819,-13.790740812117711,74.5720801986827,7.61699368797213C72.39275322211721,29.02472818806197,52.40568111169755,70.881060677703,32.57868224004224,80.3709759851784" fill="url(#SvgjsLinearGradient3830)"/></g><g transform="matrix(1,0,0,1,74.42484491077542,426.5797190511514)"><path d="M55.657897814381386,10.418854730169915C52.30077448570352,27.492069129776862,36.4837974487052,49.109055370201794,20.8611505858688,57.00987134953408C5.2385037230324,64.91068732886636,-21.425011628570353,67.15369863063731,-38.07798336263701,57.823750606163614C-54.730955096703674,48.49380258168992,-79.8474548234151,22.150673498053393,-79.05667981853117,1.0301832026918945C-78.26590481364723,-20.090307092669605,-53.34342839607789,-61.155924790872135,-33.333333333333364,-68.89919116600538C-13.323238270588838,-76.64245754113863,26.172018699983525,-58.64908936413681,41.00389055793598,-45.4294150481076C55.83576241588844,-32.20974073207839,59.01502114305925,-6.6543596694370315,55.657897814381386,10.418854730169915C52.30077448570352,27.492069129776862,36.4837974487052,49.109055370201794,20.8611505858688,57.00987134953408" fill="url(#SvgjsLinearGradient3831)"/></g><g transform="matrix(1,0,0,1,249.51205329891664,80.17187078562674)"><path d="M45.63147888994946,9.775169205033091C43.71892715321872,25.64906100884754,39.870803625738695,51.71442108133959,30.035307022013367,60.47813610260052C20.19981041828804,69.24185112386145,4.690285649642792,75.62267226154987,-13.381500732402515,62.357459332598694C-31.45328711444782,49.09224640364752,-76.69666936572257,2.7360482706948517,-78.39541127025848,-19.11314147110652C-80.09415317479439,-40.96233121290789,-43.55829027839398,-66.12900024334627,-23.57395215961793,-68.73767911820954C-3.5896140408418837,-71.34635799307281,29.976378934136584,-47.85068944082661,41.510617442397816,-34.765214720286174C53.04485595065905,-21.679739999745735,47.544030626680204,-6.098722598781359,45.63147888994946,9.775169205033091C43.71892715321872,25.64906100884754,39.870803625738695,51.71442108133959,30.035307022013367,60.47813610260052" fill="url(#SvgjsLinearGradient3832)"/></g><g transform="matrix(1,0,0,1,239.18384719752035,189.75172694404634)"><path d="M87.29399008491191,-0.000057499275829542285C88.21576891736277,18.298701642673322,46.93013965822703,48.12733910639001,26.996026553373603,57.735026918962575C7.06191344852018,67.34271473153514,-16.700239674201924,65.29362271558657,-32.31068854420864,57.64606937615956C-47.92113741421535,49.99851603673255,-68.26292729885644,31.84810230409856,-66.66666666666667,11.849706882400532C-65.0704060344769,-8.148688539297495,-37.4217947886259,-51.69309735150646,-22.73312475107005,-62.34430315402861C-8.044454713514197,-72.99550895655075,3.1275010860047985,-62.44823554185781,21.465353558668458,-52.05752793273235C39.80320603133212,-41.666820323606885,86.37221125246106,-18.29881664122498,87.29399008491191,-0.000057499275829542285C88.21576891736277,18.298701642673322,46.93013965822703,48.12733910639001,26.996026553373603,57.735026918962575" fill="url(#SvgjsLinearGradient3833)"/></g><g transform="matrix(1,0,0,1,299.03445464664924,314.22763015837654)"><path d="M59.404634073539114,10.120826929690292C59.99765650301309,27.487964202103367,43.97582380088556,30.864452330650387,30.23052776891793,40.27029869458306C16.485231736950304,49.676145058515736,-8.943678980716484,71.44632410879426,-23.067142118266652,66.55590511328634C-37.19060525581682,61.66548611777843,-53.059196165628315,30.049663939941613,-54.510251056383076,10.927784721535573C-55.96130594713784,-8.194094496870466,-45.3039121708714,-35.69865192024473,-31.773471462795204,-48.17537019714989C-18.24303075471901,-60.65208847405505,11.47604226935171,-73.64855779436876,26.672393192074097,-63.93252493989539C41.868744114796485,-54.216492085422026,58.81161164406514,-7.246310342722783,59.404634073539114,10.120826929690292C59.99765650301309,27.487964202103367,43.97582380088556,30.864452330650387,30.23052776891793,40.27029869458306" fill="url(#SvgjsLinearGradient3834)"/></g><g transform="matrix(1,0,0,1,259.31639469896163,474.0647013424081)"><path d="M64.22214080023413,22.293133664424605C60.52451855912914,42.343553230144565,51.0075130886195,56.177483213268246,31.48798313375408,60.578081564834186C11.968453178888666,64.97867991640013,-36.53593084447077,57.83501657848576,-52.895038928958364,48.696723773820246C-69.25414701344596,39.558430969154735,-68.53279904546339,21.723159138855976,-66.66666537317147,5.748324736841127C-64.80053170087955,-10.22650966517372,-61.75496722079944,-36.240155877214384,-41.69823689520686,-47.15228263826884C-21.641506569614283,-58.06440939932329,36.020320297810485,-71.29867187993449,53.67371658038399,-59.724435829485586C71.32711286295749,-48.150199779036676,67.91976304133911,2.242714098704642,64.22214080023413,22.293133664424605C60.52451855912914,42.343553230144565,51.0075130886195,56.177483213268246,31.48798313375408,60.578081564834186" fill="url(#SvgjsLinearGradient3835)"/></g><g transform="matrix(1,0,0,1,491.98056440511056,38.945595102276265)"><path d="M73.62724696556153,4.827432706538374C75.44890100415125,20.29879056432675,63.88581227148805,36.48349567284472,44.263257564871616,45.301428041582085C24.640702858255185,54.11936041031945,-25.759343659524003,63.85822745425047,-44.108081274137064,57.735026918962575C-62.45681888875012,51.61182638367468,-65.83504260001571,25.72831351872851,-65.82916812280675,8.562224829854713C-65.82329364559779,-8.603863859019082,-60.59991798690662,-35.91334789177972,-44.072834410883274,-45.261505214280206C-27.545750834859934,-54.60966253678069,13.716653103925825,-55.87487542528461,33.33333333333329,-47.526719105148175C52.950013562740764,-39.17856278501174,71.8055929269718,-10.643925151250002,73.62724696556153,4.827432706538374C75.44890100415125,20.29879056432675,63.88581227148805,36.48349567284472,44.263257564871616,45.301428041582085" fill="url(#SvgjsLinearGradient3836)"/></g><g transform="matrix(1,0,0,1,433.5503464361408,175.31014713264494)"><path d="M74.70808005574222,-5.706149292506183C71.73866910930127,11.3264519791493,52.193412447262105,47.01932229841663,34.19246119470448,57.735026918962575C16.191509942146855,68.45073153950851,-17.668337852890268,66.40662035083552,-33.29762745960352,58.588078430769464C-48.92691706631677,50.769536510703404,-59.57732546662004,28.77412722701795,-59.58327644557502,10.823775398566212C-59.589227424529994,-7.1265764298855245,-51.93203388648755,-39.89997318835153,-33.333333333333364,-49.11403253994096C-14.734632780179176,-58.328091891530384,34.00202464183752,-51.69522791887613,52.00892687335012,-44.46058071097033C70.01582910486272,-37.22593350306454,77.67749100218316,-22.738750564161666,74.70808005574222,-5.706149292506183C71.73866910930127,11.3264519791493,52.193412447262105,47.01932229841663,34.19246119470448,57.735026918962575" fill="url(#SvgjsLinearGradient3837)"/></g><g transform="matrix(1,0,0,1,475.45657105218487,316.3443862314648)"><path d="M49.81489889130711,-1.7763568394002505e-14C48.24094578325718,14.665837344594134,36.077770282577355,31.3350410518905,25.71103592058713,42.677020115026245C15.344301558596904,54.01899917816199,4.330526520766224,75.16471106465217,-12.385507280634243,68.05187437881446C-29.10154108203471,60.939037692976754,-69.48104179516685,20.48078037005411,-74.58516688781566,7.105427357601002e-15C-79.68929198046447,-20.480780370054095,-61.30024474597755,-47.27980718275369,-43.01025783652716,-54.83280784151014C-24.720270927076765,-62.385808500266585,19.68389511424766,-54.45680525945701,35.15475456888671,-45.31800395253866C50.625614023525756,-36.17920264562031,51.38885199935704,-14.66583734459417,49.81489889130711,-1.7763568394002505e-14C48.24094578325718,14.665837344594134,36.077770282577355,31.3350410518905,25.71103592058713,42.677020115026245" fill="url(#SvgjsLinearGradient3838)"/></g><g transform="matrix(1,0,0,1,470.3172955336139,442.6591485134754)"><path d="M70.68111470325442,5.177010858933311C68.01329325029117,27.789258303940173,30.773583322379103,58.349020962789204,17.11378732324134,68.07822443765531C3.4539913241035745,77.80742791252142,0.6391046083483136,74.14231935078347,-11.277661291572166,63.552231708129945C-23.194427191492643,52.962144065476416,-49.10641771221693,24.75224168624957,-54.38680807628154,4.537698581734151C-59.66719844034615,-15.676844522781266,-57.54459082884353,-45.712867116609225,-42.9600034759598,-57.73502691896256C-28.37541612307607,-69.75718672131589,14.180529677818456,-78.08059986203519,33.12071604102083,-67.59526023238587C52.0609024042232,-57.10992060273656,73.34893615621768,-17.43523658607355,70.68111470325442,5.177010858933311C68.01329325029117,27.789258303940173,30.773583322379103,58.349020962789204,17.11378732324134,68.07822443765531" fill="url(#SvgjsLinearGradient3839)"/></g><g transform="matrix(1,0,0,1,607.2811868215614,59.193094711155126)"><path d="M73.01967512128846,7.184574654653158C71.41264987195471,26.988101207155566,49.14596321424915,46.110422252894175,33.494685628067785,53.06757266797116C17.84340804188642,60.02472308304815,-4.518779152246033,57.77207258977697,-20.887990395799733,48.927477145115105C-37.25720163935343,40.08288170045324,-60.86758222822442,17.32715633052616,-64.72058183325441,7.105427357601002e-15C-68.5735814382844,-17.327156330526147,-61.98222451886714,-44.07652973020128,-44.00598802597969,-55.03546083804183C-26.02975153309224,-65.99439194588237,23.63255993285891,-76.12359256249245,43.13683712407027,-65.75358664704328C62.64111431528163,-55.383580731594115,74.6267003706222,-12.61895189784925,73.01967512128846,7.184574654653158C71.41264987195471,26.988101207155566,49.14596321424915,46.110422252894175,33.494685628067785,53.06757266797116" fill="url(#SvgjsLinearGradient3840)"/></g><g transform="matrix(1,0,0,1,605.9333510167277,177.5521741263763)"><path d="M58.84729399987508,11.817196461112399C62.692100909722356,29.144825662102967,68.67403527703581,40.17243619616313,54.98461169179165,48.25004999966837C41.29518810654749,56.32766380317361,-6.4162210454721205,69.98357516271585,-23.289247511589878,60.282879282143824C-40.162273977707635,50.5821834015718,-44.61526906726696,9.715325466720392,-46.253547104914894,-9.954125283763778C-47.89182514256283,-29.623576034247947,-46.14713529374796,-50.10689190034266,-33.11891573747748,-57.733825220761204C-20.090696181207,-65.36075854117975,16.588068609815902,-67.30756215325397,31.915770232707995,-55.71572520627504C47.24347185560009,-44.1238882592961,55.0024870900278,-5.510432739878169,58.84729399987508,11.817196461112399C62.692100909722356,29.144825662102967,68.67403527703581,40.17243619616313,54.98461169179165,48.25004999966837" fill="url(#SvgjsLinearGradient3841)"/></g><g transform="matrix(1,0,0,1,654.9377087177572,306.89851566724747)"><path d="M58.06208604159963,-0.041942003102551695C59.30312334057675,19.084753060416006,52.654320206334134,45.7368442702952,37.41425243688096,57.02514346214875C22.17418466742778,68.31344265400229,-16.03150072452817,78.64054563910739,-33.37832057511944,67.68785314801872C-50.725140425710705,56.73516065693004,-65.1941847800515,9.25299503831609,-66.66666666666667,-8.691011484383292C-68.13914855328184,-26.635018007082675,-58.31899444642461,-31.802183415747685,-42.21321189481046,-39.97618598817757C-26.107429343196312,-48.150188560607454,13.255478986949896,-64.39073424980845,29.968028643018243,-57.7350269189626C46.68057829908659,-51.07931958811677,56.82104874262251,-19.16863706662111,58.06208604159963,-0.041942003102551695C59.30312334057675,19.084753060416006,52.654320206334134,45.7368442702952,37.41425243688096,57.02514346214875" fill="url(#SvgjsLinearGradient3842)"/></g><g transform="matrix(1,0,0,1,627.2059668014226,466.02841510139217)"><path d="M66.66666666666667,-22.462669969081425C64.25318843143972,0.24666856017351435,44.607457395986806,54.20278354693834,29.226887963811116,68.74372668933142C13.846318531635426,83.28466983172451,-9.02198044981985,76.16394184068324,-25.61674992638747,64.78298888527709C-42.21151940295509,53.402035929870955,-73.19586272463988,24.566546054553097,-70.3417288955946,0.45800895689458443C-67.48759506654932,-23.650528140763928,-27.500194663910378,-68.53984812682518,-8.49194695211581,-79.86823370067398C10.516300759678757,-91.19661927452279,31.181321772042388,-77.07989844146363,43.707757375172804,-67.5123044861982C56.23419297830322,-57.94471053093278,69.08014490189362,-45.17200849833637,66.66666666666667,-22.462669969081425C64.25318843143972,0.24666856017351435,44.607457395986806,54.20278354693834,29.226887963811116,68.74372668933142" fill="url(#SvgjsLinearGradient3843)"/></g><g transform="matrix(1,0,0,1,765.1756537297118,50.160254255514985)"><path d="M65.08697269075996,10.271671296662955C63.71175277662119,25.494503179683974,50.27254014197163,28.028641067341535,34.73340963362728,34.558617301423894C19.194279125282932,41.08859353550625,-7.7626156023754795,54.0909690953738,-28.147810359306114,49.451528701157095C-48.53300511623675,44.81208830694039,-86.713505078952,26.204071679524727,-87.57775890795654,6.721974936123672C-88.44201273696108,-12.760121807277383,-55.09374800440278,-56.85766027044492,-33.333333333333364,-67.44105175924923C-11.572918662263952,-78.02444324805356,26.581344781111046,-69.73049450602093,42.98472911845993,-56.77837399670223C59.38811345580882,-43.82625348738353,66.46219260489875,-4.951160586358066,65.08697269075996,10.271671296662955C63.71175277662119,25.494503179683974,50.27254014197163,28.028641067341535,34.73340963362728,34.558617301423894" fill="url(#SvgjsLinearGradient3844)"/></g><g transform="matrix(1,0,0,1,837.3577618591911,167.70042512688832)"><path d="M66.70498065572714,5.698802570602073C66.55491534491912,24.698395538696438,54.74925375867607,45.33027567015721,39.80254519150317,55.99568209037867C24.855836624330273,66.66108851060014,-3.204201386701836,78.30551996276925,-22.975270747310248,69.69124109193088C-42.746340107918655,61.07696222109251,-73.49031465092068,25.067571377081357,-78.82387097214729,4.310008865348447C-84.1574272933739,-16.447553646384463,-74.89774334608629,-44.46881988121059,-54.97660867466986,-54.854133978466585C-35.05547400325344,-65.23944807572258,20.42267216795178,-68.09403180969898,40.70293705635128,-58.00187571818753C60.98320194475078,-47.909719626676086,66.85504596653516,-13.300790397492293,66.70498065572714,5.698802570602073C66.55491534491912,24.698395538696438,54.74925375867607,45.33027567015721,39.80254519150317,55.99568209037867" fill="url(#SvgjsLinearGradient3845)"/></g><g transform="matrix(1,0,0,1,777.1779628288463,288.1351977108962)"><path d="M60.9954247506015,-2.1449097624630724C61.14406178376392,10.372088054152039,41.33536629406102,31.025492410147788,25.40073090713482,37.42268217330252C9.466095520208624,43.81987193645725,-21.15676671412084,42.28826204262015,-34.61238757095569,36.23822881646531C-48.06800842779054,30.188195590310468,-55.888475942510745,13.209377562874755,-55.33299423387429,1.1224828163734735C-54.77751252523783,-10.964411930127808,-44.58648114280937,-29.81617507208211,-31.279497319136933,-36.28313966254238C-17.972513495464497,-42.750104253002654,9.129755029870584,-43.36900970973471,24.508908708160323,-37.67930472638816C39.88806238645006,-31.98959974304161,60.846787717439085,-14.661907579078184,60.9954247506015,-2.1449097624630724C61.14406178376392,10.372088054152039,41.33536629406102,31.025492410147788,25.40073090713482,37.42268217330252" fill="url(#SvgjsLinearGradient3846)"/></g><g transform="matrix(1,0,0,1,845.2493483506589,437.6814209427206)"><path d="M67.80585606667591,6.989052504940943C64.25499751057042,23.918705046444526,48.11432877531341,37.44042853863672,29.60679703669457,45.41794483189707C11.099265298075728,53.39546112515741,-29.272604219479724,60.5276476355866,-43.239334365037145,54.85415026450299C-57.206064510594565,49.180652893419385,-53.76564834347967,31.085397705639405,-54.19358383664996,11.376960605395418C-54.621519329820245,-8.33147649484857,-63.32453602572181,-52.14031716654095,-45.806947324058896,-63.396472336960926C-28.289358622395984,-74.6526275073809,31.97648114153837,-67.89089122410806,50.911948373327505,-56.15997041712441C69.84741560511664,-44.429049610140765,71.35671462278141,-9.940600036562639,67.80585606667591,6.989052504940943C64.25499751057042,23.918705046444526,48.11432877531341,37.44042853863672,29.60679703669457,45.41794483189707" fill="url(#SvgjsLinearGradient3847)"/></g></svg>